
<svg width="13" height="11" viewBox="0 0 13 11" fill="none" xmlns="http://www.w3.org/2000/svg">
<path d="M5.91435 4.82442C6.22587 5.01125 6.77247 5.01127 7.08406 4.8244L12.3938 1.64C12.2196 1.18689 11.7409 0.860474 11.1788 0.860474H1.8195C1.25735 0.860474 0.77867 1.18689 0.604492 1.64L5.91435 4.82442Z" fill="white"/>
<path d="M7.47208 6.58853C7.47201 6.58857 7.47197 6.58861 7.47192 6.58863C7.19925 6.75216 6.84921 6.83393 6.4993 6.83393C6.14931 6.83393 5.79942 6.75218 5.52672 6.58861C5.52667 6.58859 5.52665 6.58857 5.5266 6.58855L0.53418 3.59448V8.98315C0.53418 9.62075 1.11082 10.1395 1.81963 10.1395H11.179C11.8878 10.1395 12.4644 9.62075 12.4644 8.98315V3.59448L7.47208 6.58853Z" fill="white"/>
</svg>
