<svg width="149" height="49" viewBox="0 0 149 49" fill="none" xmlns="http://www.w3.org/2000/svg">
<path d="M48.9885 1.17788L45.5707 11.4647H52.4063L48.9885 1.17788ZM38.5724 20.024L45.2452 0H52.8132L59.4861 20.024H55.2545L53.5456 14.8413H44.4315L42.7226 20.024H38.5724Z" fill="white"/>
<path d="M65.7521 0H61.6832V20.024H65.7521V0Z" fill="white"/>
<path d="M73.4014 0H69.3326V20.024H73.4014V0Z" fill="white"/>
<path d="M76.9006 5.49679H80.9694V20.024H76.9006V5.49679ZM76.9006 0H80.9694V3.6907H76.9006V0Z" fill="white"/>
<path d="M90.8159 8.00961C89.9208 8.00961 89.2698 8.32372 88.7002 8.8734C88.1305 9.42308 87.805 10.2869 87.7236 11.3077H93.9896C93.9082 10.2869 93.5827 9.42308 93.0131 8.8734C92.4435 8.32372 91.7111 8.00961 90.8159 8.00961ZM93.5827 15.6266H97.6516C97.4888 16.4119 97.1633 17.1186 96.7564 17.6683C96.3495 18.2965 95.7799 18.7676 95.2103 19.0817C94.5593 19.4744 93.9082 19.7099 93.1759 19.9455C92.4435 20.1026 91.6297 20.2596 90.8973 20.2596C89.758 20.2596 88.7815 20.024 87.8864 19.6314C86.9913 19.2388 86.2589 18.6891 85.6079 17.9824C84.9568 17.2756 84.55 16.4904 84.1431 15.5481C83.8176 14.6058 83.6548 13.6635 83.6548 12.7212C83.6548 11.7003 83.8176 10.758 84.1431 9.89423C84.4686 8.95192 84.9569 8.16667 85.5265 7.45994C86.1775 6.7532 86.9099 6.20353 87.805 5.8109C88.7002 5.41827 89.6767 5.18269 90.8159 5.18269C91.9552 5.18269 92.9317 5.41827 93.9082 5.8109C94.8034 6.28205 95.6171 6.83173 96.2682 7.61699C96.9192 8.40224 97.4074 9.34455 97.7329 10.4439C98.0584 11.5433 98.1398 12.7212 98.0584 14.0561H87.7236C87.805 15.1554 88.1305 16.0192 88.7815 16.6474C89.4325 17.1971 90.1649 17.5112 91.0601 17.5112C91.7111 17.5112 92.1993 17.3542 92.6876 16.9615C93.0945 16.6474 93.42 16.1763 93.5827 15.6266Z" fill="white"/>
<path d="M107.742 17.5112C108.8 17.5112 109.614 17.1186 110.184 16.2548C110.753 15.391 111.079 14.2131 111.079 12.7997C111.079 11.3077 110.753 10.1298 110.184 9.34455C109.614 8.48077 108.8 8.08814 107.742 8.08814C106.684 8.08814 105.871 8.48077 105.301 9.34455C104.731 10.2083 104.406 11.3862 104.406 12.7997C104.406 14.2917 104.731 15.4696 105.301 16.2548C105.871 17.1186 106.684 17.5112 107.742 17.5112ZM100.256 12.7997C100.256 11.7788 100.418 10.8365 100.662 9.89423C100.988 8.95192 101.395 8.16667 101.883 7.45994C102.453 6.7532 103.022 6.20353 103.836 5.8109C104.569 5.41827 105.464 5.18269 106.359 5.18269C107.498 5.18269 108.393 5.49679 109.207 6.125C110.021 6.75321 110.509 7.53846 110.835 8.48077H110.916V0H114.822V20.024H110.916V17.0401H110.835C110.509 17.9824 110.021 18.7676 109.207 19.3958C108.393 20.024 107.498 20.3381 106.359 20.3381C105.382 20.3381 104.487 20.1026 103.755 19.7099C103.022 19.3173 102.371 18.7676 101.802 18.0609C101.313 17.3542 100.907 16.5689 100.581 15.6266C100.337 14.7628 100.256 13.8205 100.256 12.7997Z" fill="white"/>
<path d="M51.1857 23.8718H37.3517L36.2938 27.1699H40.5254V43.8958H44.757V27.1699H51.1857V23.8718Z" fill="white"/>
<path d="M55.1731 32.1955H55.0918V29.3686H51.1857V43.8958H55.2545V36.2003C55.2545 34.8654 55.4986 34.0016 56.0683 33.5304C56.6379 33.0593 57.6958 32.8237 59.2419 32.8237H59.7302V29.0545C58.5096 29.0545 57.533 29.2901 56.8007 29.8397C55.9055 30.4679 55.4173 31.1747 55.1731 32.1955Z" fill="white"/>
<path d="M70.6346 37.5353C70.6346 38.8702 70.3905 39.8125 69.9836 40.4407C69.5767 41.0689 68.9257 41.383 68.1933 41.383C67.3796 41.383 66.8099 41.0689 66.4031 40.5192C65.9962 39.891 65.7521 38.8702 65.7521 37.3782V29.3686H61.6832V38.399C61.6832 40.2051 62.0901 41.6186 62.9039 42.6394C63.7176 43.6603 64.9383 44.1314 66.6472 44.1314C67.7051 44.1314 68.6002 43.8958 69.3326 43.3462C70.065 42.7965 70.4719 42.0112 70.716 40.9904H70.7974V43.8173H74.7034V29.3686H70.6346V37.5353Z" fill="white"/>
<path d="M86.7471 40.5192C86.2589 41.0689 85.6079 41.383 84.8755 41.383C83.8176 41.383 83.0852 40.9904 82.5156 40.1266C81.9459 39.2628 81.7018 38.0849 81.7018 36.6715C81.7018 35.1795 81.9459 34.0016 82.5156 33.2163C83.0038 32.3526 83.8176 31.9599 84.7941 31.9599C85.5265 31.9599 86.1775 32.1955 86.6658 32.7452C87.154 33.2949 87.4795 33.9231 87.5609 34.5513H91.7111C91.6297 33.6875 91.3042 32.9022 90.8973 32.1955C90.4904 31.4888 89.9208 30.9391 89.3512 30.4679C88.7002 29.9968 88.0491 29.6827 87.2354 29.4471C86.4216 29.2115 85.6079 29.0545 84.7941 29.0545C83.6548 29.0545 82.6783 29.2901 81.7832 29.6827C80.888 30.0753 80.1556 30.625 79.5046 31.3317C78.8536 32.0385 78.3654 32.8237 78.0399 33.766C77.7144 34.7083 77.5516 35.6506 77.5516 36.5929C77.5516 37.6138 77.7144 38.5561 78.0399 39.4199C78.3654 40.3622 78.8536 41.1474 79.5046 41.8542C80.1556 42.5609 80.888 43.1106 81.8646 43.5032C82.7597 43.8958 83.8176 44.1314 84.9569 44.1314C85.7706 44.1314 86.5844 43.9744 87.3981 43.7388C88.2119 43.5032 88.8629 43.1106 89.5139 42.7179C90.1649 42.2468 90.6532 41.6971 91.0601 40.9904C91.467 40.2837 91.7925 39.4984 91.8738 38.6346H87.7236C87.4795 39.3413 87.2354 39.9695 86.7471 40.5192Z" fill="white"/>
<path d="M108.8 29.3686H103.836L98.3026 35.0224V23.8718H94.2338V43.8958H98.3026V36.75L104.08 43.8958H109.126L102.616 35.8077L108.8 29.3686Z" fill="white"/>
<path d="M114.903 23.8718H110.835V27.5625H114.903V23.8718Z" fill="white"/>
<path d="M114.903 29.3686H110.835V43.8958H114.903V29.3686Z" fill="white"/>
<path d="M126.784 29.0545C125.726 29.0545 124.75 29.2901 124.017 29.8397C123.285 30.3894 122.797 31.1747 122.553 32.1955H122.471V29.3686H118.565V43.8958H122.634V35.7292C122.634 34.3942 122.878 33.4519 123.285 32.8237C123.773 32.1955 124.343 31.8814 125.157 31.8814C125.971 31.8814 126.54 32.1955 127.028 32.7452C127.517 33.3734 127.679 34.3942 127.679 35.8862V43.8958H131.748V34.8654C131.748 33.0593 131.341 31.6458 130.528 30.625C129.714 29.6042 128.412 29.0545 126.784 29.0545Z" fill="white"/>
<path d="M144.28 39.6554C143.711 40.4407 142.897 40.7548 141.839 40.7548C140.781 40.7548 139.967 40.3622 139.398 39.6554C138.828 38.8702 138.502 37.7708 138.502 36.2788C138.502 34.7869 138.828 33.6875 139.398 32.9022C139.967 32.117 140.781 31.8029 141.839 31.8029C142.897 31.8029 143.711 32.1955 144.28 32.9022C144.85 33.6875 145.175 34.7869 145.175 36.2788C145.175 37.7708 144.85 38.9487 144.28 39.6554ZM145.013 29.3686V32.3526H144.931C144.606 31.4103 144.117 30.625 143.304 29.9968C142.49 29.3686 141.595 29.0545 140.455 29.0545C139.56 29.0545 138.665 29.2115 137.933 29.6042C137.2 29.9968 136.549 30.4679 135.98 31.0962C135.41 31.7244 135.003 32.5096 134.759 33.3734C134.434 34.2372 134.352 35.258 134.352 36.2788C134.352 37.2997 134.515 38.242 134.759 39.1843C135.085 40.0481 135.492 40.8333 135.98 41.4615C136.549 42.0897 137.119 42.6394 137.933 42.9535C138.665 43.3462 139.56 43.5032 140.455 43.5032C141.595 43.5032 142.49 43.1891 143.304 42.5609C144.117 41.9327 144.606 41.1474 144.931 40.2051H145.013V43.1891C145.013 44.2885 144.768 45.1522 144.199 45.6234C143.629 46.0945 142.978 46.3301 142.083 46.3301C141.432 46.3301 140.862 46.1731 140.293 45.9375C139.723 45.7019 139.316 45.2308 139.235 44.4455H135.247C135.329 45.3093 135.573 46.016 135.98 46.5657C136.387 47.1939 136.956 47.6651 137.526 47.9792C138.177 48.3718 138.909 48.6074 139.723 48.7644C140.537 48.9215 141.351 49 142.164 49C143.06 49 143.873 48.9215 144.687 48.6859C145.501 48.4503 146.233 48.1362 146.884 47.5865C147.535 47.1154 148.023 46.4872 148.43 45.7019C148.837 44.9167 149 43.9744 149 42.875V29.3686H145.013Z" fill="white"/>
<path d="M13.834 43.8958L28.5631 0H24.3315L9.52103 43.8958H13.834Z" fill="white"/>
<path d="M23.355 43.8958L38.0841 0H33.8525L19.0421 43.8958H23.355Z" fill="white"/>
<path d="M4.31294 43.8958L19.0421 0H14.7291L0 43.8958H4.31294Z" fill="white"/>
</svg>
